<?xml version="1.0" encoding="UTF-8"?><!DOCTYPE svg PUBLIC "-//W3C//DTD SVG 1.1//EN" "http://www.w3.org/Graphics/SVG/1.1/DTD/svg11.dtd"><svg xmlns="http://www.w3.org/2000/svg" xmlns:xlink="http://www.w3.org/1999/xlink"><defs><path id="a" d="M0 0h24v24H0V0z"/></defs><symbol id="icon-5-stars" viewBox="0 0 70 18"><path d="M6 11.3L9.71 14 8.29 9.64 12 7H7.45L6 2.5 4.55 7H0l3.71 2.64L2.29 14zm14 0l3.71 2.7-1.42-4.36L26 7h-4.55L20 2.5 18.55 7H14l3.71 2.64L16.29 14zm14 0l3.71 2.7-1.42-4.36L40 7h-4.55L34 2.5 32.55 7H28l3.71 2.64L30.29 14zm14 0l3.71 2.7-1.42-4.36L54 7h-4.55L48 2.5 46.55 7H42l3.71 2.64L44.29 14zm14 0l3.71 2.7-1.42-4.36L68 7h-4.55L62 2.5 60.55 7H56l3.71 2.64L58.29 14z"/></symbol><symbol id="icon-clock" viewBox="0 0 24 24"><path d="M0 0h24v24H0z" fill="none"/><path d="M22 5.72l-4.6-3.86-1.29 1.53 4.6 3.86L22 5.72zM7.88 3.39L6.6 1.86 2 5.71l1.29 1.53 4.59-3.85zM12.5 8H11v6l4.75 2.85.75-1.23-4-2.37V8zM12 4c-4.97 0-9 4.03-9 9s4.02 9 9 9a9 9 0 000-18zm0 16c-3.87 0-7-3.13-7-7s3.13-7 7-7 7 3.13 7 7-3.13 7-7 7z"/></symbol><symbol id="icon-close" viewBox="0 0 24 24"><path d="M0 0h24v24H0V0z" fill="none"/><path d="M18.3 5.71a.996.996 0 00-1.41 0L12 10.59 7.11 5.7A.996.996 0 105.7 7.11L10.59 12 5.7 16.89a.996.996 0 101.41 1.41L12 13.41l4.89 4.89a.996.996 0 101.41-1.41L13.41 12l4.89-4.89c.38-.38.38-1.02 0-1.4z"/></symbol><symbol id="icon-collection" viewBox="0 0 24 24"><path d="M4 11h5V5H4v6zm0 7h5v-6H4v6zm6 0h5v-6h-5v6zm6 0h5v-6h-5v6zm-6-7h5V5h-5v6zm6-6v6h5V5h-5z"/><path d="M0 0h24v24H0z" fill="none"/></symbol><symbol id="icon-comments" viewBox="0 0 24 24"><path d="M20 2H4c-1.1 0-1.99.9-1.99 2L2 22l4-4h14c1.1 0 2-.9 2-2V4c0-1.1-.9-2-2-2zM6 9h12v2H6V9zm8 5H6v-2h8v2zm4-6H6V6h12v2z"/><path d="M0 0h24v24H0z" fill="none"/></symbol><symbol id="icon-date" viewBox="0 0 24 24"><path d="M0 0h24v24H0z" fill="none"/><path d="M17 10H7v2h10v-2zm2-7h-1V1h-2v2H8V1H6v2H5c-1.11 0-1.99.9-1.99 2L3 19a2 2 0 002 2h14c1.1 0 2-.9 2-2V5c0-1.1-.9-2-2-2zm0 16H5V8h14v11zm-5-5H7v2h7v-2z"/></symbol><symbol id="icon-external-link-square" viewBox="0 0 24 24"><path d="M0 0h24v24H0z" fill="none"/><path d="M19 19H5V5h7V3H5a2 2 0 00-2 2v14a2 2 0 002 2h14c1.1 0 2-.9 2-2v-7h-2v7zM14 3v2h3.59l-9.83 9.83 1.41 1.41L19 6.41V10h2V3h-7z"/></symbol><symbol id="icon-eye" viewBox="0 0 24 24"><path fill="none" d="M0 0h24v24H0V0z"/><path d="M12 4.5C7 4.5 2.73 7.61 1 12c1.73 4.39 6 7.5 11 7.5s9.27-3.11 11-7.5c-1.73-4.39-6-7.5-11-7.5zM12 17c-2.76 0-5-2.24-5-5s2.24-5 5-5 5 2.24 5 5-2.24 5-5 5zm0-8c-1.66 0-3 1.34-3 3s1.34 3 3 3 3-1.34 3-3-1.34-3-3-3z"/></symbol><symbol id="icon-facebook" viewBox="0 0 1792 1792"><path d="M1343 12v264h-157q-86 0-116 36t-30 108v189h293l-39 296h-254v759H734V905H479V609h255V391q0-186 104-288.5T1115 0q147 0 228 12z"/></symbol><symbol id="icon-flickr" viewBox="0 0 1792 1792"><path d="M1376 128q119 0 203.5 84.5T1664 416v960q0 119-84.5 203.5T1376 1664H416q-119 0-203.5-84.5T128 1376V416q0-119 84.5-203.5T416 128h960zM826 896q0-88-62-150t-150-62-150 62-62 150 62 150 150 62 150-62 62-150zm564 0q0-88-62-150t-150-62-150 62-62 150 62 150 150 62 150-62 62-150z"/></symbol><symbol id="icon-google" viewBox="0 0 1792 1792"><path d="M896 786h725q12 67 12 128 0 217-91 387.5T1282.5 1568 896 1664q-157 0-299-60.5T352 1440t-163.5-245T128 896t60.5-299T352 352t245-163.5T896 128q300 0 515 201l-209 201q-123-119-306-119-129 0-238.5 65T484 652.5 420 896t64 243.5T657.5 1316t238.5 65q87 0 160-24t120-60 82-82 51.5-87 22.5-78H896V786z"/></symbol><symbol id="icon-heart-outlined" viewBox="0 0 24 24"><path d="M0 0h24v24H0z" fill="none"/><path d="M16.5 3c-1.74 0-3.41.81-4.5 2.09C10.91 3.81 9.24 3 7.5 3 4.42 3 2 5.42 2 8.5c0 3.78 3.4 6.86 8.55 11.54L12 21.35l1.45-1.32C18.6 15.36 22 12.28 22 8.5 22 5.42 19.58 3 16.5 3zm-4.4 15.55l-.1.1-.1-.1C7.14 14.24 4 11.39 4 8.5 4 6.5 5.5 5 7.5 5c1.54 0 3.04.99 3.57 2.36h1.87C13.46 5.99 14.96 5 16.5 5c2 0 3.5 1.5 3.5 3.5 0 2.89-3.14 5.74-7.9 10.05z"/></symbol><symbol id="icon-heart" viewBox="0 0 24 24"><path d="M0 0h24v24H0z" fill="none"/><path d="M12 21.35l-1.45-1.32C5.4 15.36 2 12.28 2 8.5 2 5.42 4.42 3 7.5 3c1.74 0 3.41.81 4.5 2.09C13.09 3.81 14.76 3 16.5 3 19.58 3 22 5.42 22 8.5c0 3.78-3.4 6.86-8.55 11.54L12 21.35z"/></symbol><symbol id="icon-home" viewBox="0 0 24 24"><path d="M10 20v-6h4v6h5v-8h3L12 3 2 12h3v8z"/><path d="M0 0h24v24H0z" fill="none"/></symbol><symbol id="icon-instagram" viewBox="0 0 1792 1792"><path d="M1490 1426V778h-135q20 63 20 131 0 126-64 232.5T1137 1310t-240 62q-197 0-337-135.5T420 909q0-68 20-131H299v648q0 26 17.5 43.5T360 1487h1069q25 0 43-17.5t18-43.5zm-284-533q0-124-90.5-211.5T897 594q-127 0-217.5 87.5T589 893t90.5 211.5T897 1192q128 0 218.5-87.5T1206 893zm284-360V368q0-28-20-48.5t-49-20.5h-174q-29 0-49 20.5t-20 48.5v165q0 29 20 49t49 20h174q29 0 49-20t20-49zm174-208v1142q0 81-58 139t-139 58H325q-81 0-139-58t-58-139V325q0-81 58-139t139-58h1142q81 0 139 58t58 139z"/></symbol><symbol id="icon-link" viewBox="0 0 24 24"><path d="M0 0h24v24H0z" fill="none"/><path d="M3.9 12c0-1.71 1.39-3.1 3.1-3.1h4V7H7c-2.76 0-5 2.24-5 5s2.24 5 5 5h4v-1.9H7c-1.71 0-3.1-1.39-3.1-3.1zM8 13h8v-2H8v2zm9-6h-4v1.9h4c1.71 0 3.1 1.39 3.1 3.1s-1.39 3.1-3.1 3.1h-4V17h4c2.76 0 5-2.24 5-5s-2.24-5-5-5z"/></symbol><symbol id="icon-linkedin" viewBox="0 0 1792 1792"><path d="M477 625v991H147V625h330zm21-306q1 73-50.5 122T312 490h-2q-82 0-132-49t-50-122q0-74 51.5-122.5T314 148t133 48.5T498 319zm1166 729v568h-329v-530q0-105-40.5-164.5T1168 862q-63 0-105.5 34.5T999 982q-11 30-11 81v553H659q2-399 2-647t-1-296l-1-48h329v144h-2q20-32 41-56t56.5-52 87-43.5T1285 602q171 0 275 113.5t104 332.5z"/></symbol><symbol id="icon-menu" viewBox="0 0 24 24"><path d="M0 0h24v24H0V0z" fill="none"/><path d="M4 18h16c.55 0 1-.45 1-1s-.45-1-1-1H4c-.55 0-1 .45-1 1s.45 1 1 1zm0-5h16c.55 0 1-.45 1-1s-.45-1-1-1H4c-.55 0-1 .45-1 1s.45 1 1 1zM3 7c0 .55.45 1 1 1h16c.55 0 1-.45 1-1s-.45-1-1-1H4c-.55 0-1 .45-1 1z"/></symbol><symbol id="icon-pinterest" viewBox="0 0 1792 1792"><path d="M256 597q0-108 37.5-203.5T397 227t152-123 185-78T936 0q158 0 294 66.5T1451 260t85 287q0 96-19 188t-60 177-100 149.5-145 103-189 38.5q-68 0-135-32t-96-88q-10 39-28 112.5t-23.5 95-20.5 71-26 71-32 62.5-46 77.5-62 86.5l-14 5-9-10q-15-157-15-188 0-92 21.5-206.5T604 972t52-203q-32-65-32-169 0-83 52-156t132-73q61 0 95 40.5T937 514q0 66-44 191t-44 187q0 63 45 104.5t109 41.5q55 0 102-25t78.5-68 56-95 38-110.5 20-111 6.5-99.5q0-173-109.5-269.5T909 163q-200 0-334 129.5T441 621q0 44 12.5 85t27 65 27 45.5T520 847q0 28-15 73t-37 45q-2 0-17-3-51-15-90.5-56t-61-94.5-32.5-108T256 597z"/></symbol><symbol id="icon-print" viewBox="0 0 24 24"><path d="M19 8H5c-1.66 0-3 1.34-3 3v6h4v4h12v-4h4v-6c0-1.66-1.34-3-3-3zm-3 11H8v-5h8v5zm3-7c-.55 0-1-.45-1-1s.45-1 1-1 1 .45 1 1-.45 1-1 1zm-1-9H6v4h12V3z"/><path d="M0 0h24v24H0z" fill="none"/></symbol><symbol id="icon-rss" viewBox="0 0 1792 1792"><path d="M576 1344q0 80-56 136t-136 56-136-56-56-136 56-136 136-56 136 56 56 136zm512 123q2 28-17 48-18 21-47 21H889q-25 0-43-16.5t-20-41.5q-22-229-184.5-391.5T250 902q-25-2-41.5-20T192 839V704q0-29 21-47 17-17 43-17h5q160 13 306 80.5T826 902q114 113 181.5 259t80.5 306zm512 2q2 27-18 47-18 20-46 20h-143q-26 0-44.5-17.5T1329 1476q-12-215-101-408.5t-231.5-336-336-231.5T252 398q-25-1-42.5-19.5T192 335V192q0-28 20-46 18-18 44-18h3q262 13 501.5 120T1186 542q187 186 294 425.5t120 501.5z"/></symbol><symbol id="icon-search" viewBox="0 0 24 24"><path d="M15.5 14h-.79l-.28-.27A6.471 6.471 0 0016 9.5 6.5 6.5 0 109.5 16c1.61 0 3.09-.59 4.23-1.57l.27.28v.79l5 4.99L20.49 19l-4.99-5zm-6 0C7.01 14 5 11.99 5 9.5S7.01 5 9.5 5 14 7.01 14 9.5 11.99 14 9.5 14z"/><path d="M0 0h24v24H0z" fill="none"/></symbol><symbol id="icon-spoon" viewBox="0 0 24 24"><path d="M14 17H4v2h10v-2zm6-8H4v2h16V9zM4 15h16v-2H4v2zM4 5v2h16V5H4z"/><path d="M0 0h24v24H0z" fill="none"/></symbol><symbol id="icon-star-half" viewBox="0 0 24 24"><clipPath id="b"><use xlink:href="#a" overflow="visible"/></clipPath><path clip-path="url(#b)" d="M22 9.24l-7.19-.62L12 2 9.19 8.63 2 9.24l5.46 4.73L5.82 21 12 17.27 18.18 21l-1.63-7.03L22 9.24zM12 15.4V6.1l1.71 4.04 4.38.38-3.32 2.88 1 4.28L12 15.4z"/></symbol><symbol id="icon-star" viewBox="0 0 24 24"><path d="M0 0h24v24H0z" fill="none"/><path d="M12 17.27L18.18 21l-1.64-7.03L22 9.24l-7.19-.61L12 2 9.19 8.63 2 9.24l5.46 4.73L5.82 21z"/><path d="M0 0h24v24H0z" fill="none"/></symbol><symbol id="icon-thumbs-up" viewBox="0 0 24 24"><path d="M0 0h24v24H0z" fill="none"/><path d="M1 21h4V9H1v12zm22-11c0-1.1-.9-2-2-2h-6.31l.95-4.57.03-.32c0-.41-.17-.79-.44-1.06L14.17 1 7.59 7.59C7.22 7.95 7 8.45 7 9v10c0 1.1.9 2 2 2h9c.83 0 1.54-.5 1.84-1.22l3.02-7.05c.09-.23.14-.47.14-.73v-1.91l-.01-.01L23 10z"/></symbol><symbol id="icon-tumblr" viewBox="0 0 1792 1792"><path d="M1328 1329l80 237q-23 35-111 66t-177 32q-104 2-190.5-26T787 1564t-95-106-55.5-120-16.5-118V676H452V461q72-26 129-69.5t91-90 58-102 34-99T779 12q1-5 4.5-8.5T791 0h244v424h333v252h-334v518q0 30 6.5 56t22.5 52.5 49.5 41.5 81.5 14q78-2 134-29z"/></symbol><symbol id="icon-twitter" viewBox="0 0 1792 1792"><path d="M1684 408q-67 98-162 167 1 14 1 42 0 130-38 259.5T1369.5 1125 1185 1335.5t-258 146-323 54.5q-271 0-496-145 35 4 78 4 225 0 401-138-105-2-188-64.5T285 1033q33 5 61 5 43 0 85-11-112-23-185.5-111.5T172 710v-4q68 38 146 41-66-44-105-115t-39-154q0-88 44-163 121 149 294.5 238.5T884 653q-8-38-8-74 0-134 94.5-228.5T1199 256q140 0 236 102 109-21 205-78-37 115-142 178 93-10 186-50z"/></symbol><symbol id="icon-video-play" viewBox="0 0 24 24"><path d="M0 0h24v24H0z" fill="none"/><path d="M10 16.5l6-4.5-6-4.5v9zM12 2C6.48 2 2 6.48 2 12s4.48 10 10 10 10-4.48 10-10S17.52 2 12 2zm0 18c-4.41 0-8-3.59-8-8s3.59-8 8-8 8 3.59 8 8-3.59 8-8 8z"/></symbol><symbol id="icon-vimeo" viewBox="0 0 1792 1792"><path d="M1709 518q-10 236-332 651-333 431-562 431-142 0-240-263-44-160-132-482-72-262-157-262-18 0-127 76l-77-98q24-21 108-96.5T320 359q156-138 241-146 95-9 153 55.5T795 472q44 287 66 373 55 249 120 249 51 0 154-161 101-161 109-246 13-139-109-139-57 0-121 26 120-393 459-382 251 8 236 326z"/></symbol><symbol id="icon-vk" viewBox="0 0 1792 1792"><path d="M1853 520q23 64-150 294-24 32-65 85-78 100-90 131-17 41 14 81 17 21 81 82h1l1 1 1 1 2 2q141 131 191 221 3 5 6.5 12.5t7 26.5-.5 34-25 27.5-59 12.5l-256 4q-24 5-56-5t-52-22l-20-12q-30-21-70-64t-68.5-77.5-61-58-56.5-15.5q-3 1-8 3.5t-17 14.5-21.5 29.5-17 52-6.5 77.5q0 15-3.5 27.5t-7.5 18.5l-4 5q-18 19-53 22H875q-71 4-146-16.5t-131.5-53-103-66T424 1338l-25-24q-10-10-27.5-30t-71.5-91-106-151T71.5 831-59 559q-6-16-6-27t3-16l4-6q15-19 57-19l274-2q12 2 23 6.5t16 8.5l5 3q16 11 24 32 20 50 46 103.5t41 81.5l16 29q29 60 56 104t48.5 68.5T590 964t34 14 27-5q2-1 5-5t12-22 13.5-47 9.5-81 0-125q-2-40-9-73t-14-46l-6-12q-25-34-85-43-13-2 5-24 17-19 38-30 53-26 239-24 82 1 135 13 20 5 33.5 13.5t20.5 24 10.5 32 3.5 45.5-1 55-2.5 70.5-1.5 82.5q0 11-1 42t-.5 48 3.5 40.5 11.5 39T1093 971q8 2 17 4t26-11 38-34.5 52-67 68-107.5q60-104 107-225 4-10 10-17.5t11-10.5l4-3 5-2.5 13-3 20-.5 288-2q39-5 64 2.5t31 16.5z"/></symbol><symbol id="icon-youtube" viewBox="0 0 1792 1792"><path d="M1280 896q0-37-30-54L738 522q-31-20-65-2-33 18-33 56v640q0 38 33 56 16 8 31 8 20 0 34-10l512-320q30-17 30-54zm512 0q0 96-1 150t-8.5 136.5T1760 1330q-16 73-69 123t-124 58q-222 25-671 25t-671-25q-71-8-124.5-58T31 1330q-14-65-21.5-147.5T1 1046 0 896t1-150 8.5-136.5T32 462q16-73 69-123t124-58q222-25 671-25t671 25q71 8 124.5 58t69.5 123q14 65 21.5 147.5T1791 746t1 150z"/></symbol></svg>