<svg xmlns="http://www.w3.org/2000/svg" xmlns:xlink="http://www.w3.org/1999/xlink" viewBox="0 0 456.8 257.2" width="75" height="42">
	<path d="M43.3 2.6c-3 .7-7.6-1.5-9.8 6C30.3 20.3 29.2 31.5 28 42l-1.7 14C25 64.5 23.8 73.5 22.7 82l-4 28.2c-1 7.2-2 14.4-3.2 21.6C11 162 7 190.5 2.5 226c-1.4 12-1.4 15.2-2.4 22.4-1 9.4 12 9.8 13.4 0 1.4-6.8 2-15.8 3-22.6 2.4-23.4 5.3-43.6 8-63.4 3.7 13.3 10.2 32 10.2 32 4.3 11.2 7.2 22.4 9.4 32.4 3 12 5 21.3 9.3 26.7 6.2 6 17-2.2 11.2-9.7-3.2-4.4-5-12.3-7.2-21.6-2.5-9.8-5-22-9.7-34-1.8-5-7.6-21-10-31.2 6.7-2.5 13-7.2 18.3-13.7C62.6 135 68.7 124 72.3 113c4.3-14 4.3-33.4 5-40 1.5-24-1.7-39.8-2.8-45-1.8-10.7-10-20.8-19-24.7-4.8-2.2-8.7-1.5-12.3-.7zm5.4 13C54.4 18 59.7 25 61.3 32c2 11.6 3.6 19.5 2 42.2-.6 13 .5 24.5-3.8 36-3 9.4-8.3 18.7-13.7 25.6-4 4.6-7.6 7.5-12 9-1.7-2.2-5-1.5-6.7-.4.8-4.3 1-8.3 2.2-12.6l10.8-76c.4-5 .7-9.7 1.5-14.4 1-9 2-17.2 4-26 1.7-.2 2-.2 3.2 0zM136.4 3.3c-9 0-16.5.3-17.2.3-3.6 0-7 2.6-7.2 5.4-1.5 6.5-1.5 3.6-3.6 20.6-2.2 16.5-3 24.4-4.4 31.3-3.6 15-5 23.3-6 35.2l-2 12.2c-1.3 10.4-2.4 21.2-3.5 31.7-1.4 12.3-2.5 25-4.7 37.2-5.4 35.6-6.8 47.8-9 69.8-.7 3.6 2.2 6.5 5.8 6.5h30c9.2 0 11-13.3 2-13.3H93.2c1.8-18.8 3.3-31 8-62.7 2-12.6 3.6-25.5 4.6-37.8l.8-5.7c5 .3 11.5 0 16.5-.8 8.4-1 9.5-14 .5-13.3-6 .3-9 .6-16 .3l3.7-24.5c1-11.2 2.6-19.4 5.8-33.8 3-11.6 3.2-21.6 4.7-32.4.7-5.8 1.8-10 2-12.6 7 0 8-.4 11.3-.4 4.3 0 7.6 0 12 .4 10 1 12.5-13 2.8-13.4-5-.7-9-.3-13.4-.3zM196 232.6c3.7-9.7-8.5-13.3-12.5-3.6-4 9.4-7.2 15-12 14.8-7.8-3.6-9.2-28-8-37.5 1-10 .2-9.7.2-19.8-.3-12.2 1.8-24.8 4.3-36.7 3.3-15.5 6.2-31.7 8.3-46.8l1.5-10.4c1.8-14 3.2-25.2 6.4-40.4 4-19.4 7-26.2 9-29.8.8-1.8.4-1 3.6-6.2 1.5-1.8 3.6-2.8 5.8-2.8 3 0 5 3.6 4.7 6.4-1.5 8.7 11 9.4 13 .4 1.4-5.8-1.5-11.2-2.6-13-3-4.6-8-7.5-14-7.2-6.5 0-13 3.6-17.3 9.4l-4.7 6.8c-5 8-8.6 23.8-10.8 35-3.3 15.8-4.8 27-7 41.4l-1.4 10.8c-1.8 14.4-5 30.6-8 45.7-2.4 12.7-4.6 26-4.2 39.3 0 5.8.4 10.5-.7 17-1.5 13 .7 49.6 18.7 51.8 16.6 2 24-16.5 27.7-24.4zM223.3 248c7.6-24.8 8.6-50 12-76 2-22.6 4.6-46.3 8.5-68.6 3.6-19.8 4.7-32 6.5-54.4 1.4-11.5 1.8-17.6 2.5-23.8 1.5-7.2 2.2-11.5 1.8-16.5-.3-9.4-15-7.2-13.3 3 .4 3.5-.4 6.3-1.8 13.5-.7 6.5-1.8 13-2.5 24.5-2.2 22-3 34-6.5 53.3-4 22.7-6.5 46.4-8.6 69.8-3.4 28.8-6 55.8-11.7 73-2.8 9.8 10.5 11.6 13 2.3zM311 109c4.4-13.2 7-26.5 7.6-40.2 1-22 0-28.8-1.8-37l-.7-4.4c-2-10.8-9-21-18.3-24.5-5.4-2.2-18-5.5-21 4.2-3 12-5 23.8-6 35.3-3 19-4.7 38.2-8.6 67-4.2 26.3-7.5 54-10.7 80.6-1.5 11.6-3 24-4.7 35.4-.7 5.8-2.2 17.6-2.2 21.2-.7 10.5 12.6 9 13.4 0 .7-6.8 1-13.6 2-21.6 2-11.5 3.7-23.4 4.8-35.2 1.8-12 3-23.4 4.7-35.3 6.8-3.3 16.5-2.2 26-14 7-8.7 11.4-20.2 15.7-31.4zM279 82c1.8-13 3.2-26 5-39.6 1.5-9.4 2.2-18.8 4.7-27.8.7 0 1.5.4 2.2.8 5.3 2.5 10.3 9 11.4 16.2l1 4.6c1.5 8 3 13.7 2 34-.8 12-3.4 24.4-7.3 36.6-2 6-6.8 18.7-13 26.3-4.6 6-7.8 5-14.3 7.4l8.3-58.6zM372.7 3.3c-9 0-16.6.3-17.3.3-3.6 0-6.8 2.6-7.2 5.4-1.4 6.5-1.4 3.6-3.6 20.6-2 16.5-3 24.4-4.3 31.3-3.6 15-5 23.3-6 35.2l-2 12.2c-1.4 10.4-2.4 21.2-3.5 31.7-1.5 12.3-2.5 25-4.7 37.2-5.3 35.6-6.7 47.8-9 69.8-.6 3.6 2.3 6.5 6 6.5h29.7c9.4 0 11.2-13.3 2.2-13.3h-23.5c1.8-18.8 3.2-31 8-62.7 2-12.6 3.5-25.5 4.6-37.8l.8-5.7c5 .3 11.5 0 16.6-.8 8.3-1 9.3-14 .3-13.3-6 .3-9 .6-15.8.3l3.5-24.5c1-11.2 2.5-19.4 5.8-33.8 2.8-11.6 3.2-21.6 4.6-32.4.7-5.8 1.7-10 2-12.6 7 0 8-.4 11.3-.4 4.3 0 7.5 0 11.8.4 10.2 1 12.7-13 3-13.4-5-.7-9-.3-13.3-.3zM421.6 250c12.2-10.6 16.5-29.3 16.5-43.7-.2-15.8-1.3-24-2.4-34.5l-5.4-48-1.8-14.7c-2.5-16.4-5.4-39.5-6-52 0-7 .2-18 1.3-25 .4-4.2 4-19.4 12.3-16 8.2 3.5 8.6 19.7 5.4 29-3.3 8.7 9.7 12 13 3 4.6-14.5 3.5-38-11.6-44.7-7.6-3.3-13.3-1.5-17.3 1-8.6 5.5-14 18-15 27.8-1.2 7.6-2.3 19.5-2 27.4.8 13 3.7 35.3 6.2 53.3l2.2 14.8c3.5 36 4.6 41.4 5.3 47.5 1 10 1.8 18 2 33.5.5 10.4-4.2 26.3-10.7 31.7-4.6 3.6-11.8 6-15 .3-4.8-7.5-5.8-23-2.2-35.3 2.8-9-10-11.5-13-1.8-4 13.7-4 33.5 3.2 45.4 7.2 10.8 22.7 11.2 35 1z" fill="#CD8D5F"/>
</svg>
